<svg width="60" height="60" viewBox="0 0 60 60" fill="none" xmlns="http://www.w3.org/2000/svg">
<path d="M51.2596 18.1415C51.471 18.3528 51.7529 18.3528 51.9643 18.1415L54.2191 15.8866C54.7828 15.3229 54.8533 14.4773 54.36 13.9841L46.1157 5.73976C45.6225 5.24651 44.7769 5.31698 44.2132 5.88069L41.9583 8.13554C41.747 8.34694 41.747 8.62879 41.9583 8.84019L51.2596 18.1415Z" fill="#F17373"/>
<path d="M39.2099 10.8838L11.7994 38.2943C11.6585 38.4353 11.5175 38.6466 11.4471 38.7876L5.52809 52.9509C5.3167 53.4441 5.38716 54.0078 5.73948 54.3601C6.0918 54.7125 6.58505 54.7829 7.14876 54.5715L21.3121 48.6525C21.5234 48.5821 21.6644 48.4412 21.8053 48.3002L49.2159 20.8897C49.4272 20.6783 49.4272 20.3964 49.2159 20.185L39.9146 10.8838C39.7032 10.7428 39.4213 10.7428 39.2099 10.8838ZM18.7753 46.8909L10.672 50.3437C10.0378 50.6255 9.47408 50.0618 9.75594 49.4277L13.2087 41.3243C13.4201 40.7606 14.1247 40.6196 14.477 40.972L19.1981 45.6931C19.48 46.0454 19.3391 46.6796 18.7753 46.8909Z" fill="#F17373"/>
<path d="M17.9302 28.2884L28.2884 17.9302C28.6407 17.5778 28.6407 17.0141 28.2884 16.6618L17.1551 5.52848C16.4504 4.82384 15.323 4.82384 14.6184 5.52848L5.52848 14.6184C4.82384 15.323 4.82384 16.4504 5.52848 17.1551L16.6618 28.2884C17.0141 28.6407 17.5778 28.6407 17.9302 28.2884ZM14.9002 11.8703C16.3095 11.8703 17.5074 13.0681 17.5074 14.4774C17.5074 15.8867 16.3095 17.0846 14.9002 17.0846C13.4909 17.0846 12.293 15.8867 12.293 14.4774C12.293 12.9977 13.4205 11.8703 14.9002 11.8703Z" fill="#F17373"/>
<path d="M42.1693 31.8116L31.8111 42.1698C31.4588 42.5222 31.4588 43.0859 31.8111 43.4382L42.9444 54.5715C43.6491 55.2762 44.7765 55.2762 45.4812 54.5715L54.571 45.4816C55.2757 44.777 55.2757 43.6496 54.571 42.9449L43.4377 31.8116C43.0854 31.4593 42.5217 31.4593 42.1693 31.8116Z" fill="#F17373"/>
</svg>
