<svg width="201" height="140" viewBox="0 0 201 140" fill="none" xmlns="http://www.w3.org/2000/svg">
<g clip-path="url(#clip0_1926_3163)">
<path d="M-1 42.806C6.18773 42.4847 13.3867 41.718 20.5576 41.9322C37.9885 42.4452 54.4047 46.7353 69.0564 56.5727C74.6206 60.3046 79.4293 64.8541 83.1331 70.4859C85.794 74.5279 87.0793 78.7842 84.7454 83.4069C82.4003 88.0578 78.1947 89.625 73.3296 89.6531C61.1584 89.7264 48.9815 89.7208 36.8103 89.6024C35.7505 89.5911 34.4313 88.7342 33.7041 87.8717C32.3511 86.2707 31.342 84.3765 29.865 82.1046C31.4435 82.1046 32.43 82.1046 33.4222 82.1046C45.2214 82.1046 57.0205 82.1159 68.8197 82.0877C69.9246 82.0877 71.0859 82.0201 72.1345 81.6931C74.9419 80.8136 76.2555 78.5418 74.8066 76.0613C72.6137 72.3067 70.2347 68.5128 67.2299 65.4065C58.2608 56.1273 46.8393 51.0705 34.5891 47.6881C22.9422 44.4804 11.0472 43.4374 -1 43.9279C-1 43.5558 -1 43.1837 -1 42.806Z" fill="white"/>
<path d="M15.9969 50.6985C12.8117 56.1499 10.9514 61.714 10.5624 67.8194C9.37854 86.4116 23.0662 103.228 41.5796 105.726C52.3753 107.18 62.1055 104.553 70.3023 97.4441C73.0985 95.0144 76.2047 95.7021 79.6887 94.5916C78.9784 95.6232 78.657 96.2433 78.206 96.7338C67.0383 108.815 53.2322 113.483 37.2782 109.739C21.3976 106.013 11.1092 95.7585 6.8417 79.9624C4.43451 71.044 5.22375 62.1876 8.97829 53.675C10.8894 49.3342 10.9232 49.3511 15.9969 50.6985Z" fill="white"/>
<path d="M87.2145 67.03C84.8298 63.0049 82.1182 59.132 80.1169 54.9264C71.9314 37.7548 52.3977 29.6313 34.5213 35.8437C31.4602 36.9092 27.8804 36.5033 24.5149 36.4638C30.1241 30.584 46.0048 26.339 59.7714 30.9617C75.6126 36.2778 86.5549 49.8753 88.0319 66.5396C87.7557 66.703 87.4851 66.8665 87.2145 67.03Z" fill="white"/>
<path d="M20.3545 67.5206C21.8935 67.5206 22.8857 67.5206 23.8779 67.5206C34.9104 67.5206 45.9485 67.6615 56.9809 67.436C60.1999 67.3684 62.3027 68.2929 63.7289 71.0778C64.3209 72.2279 65.065 73.299 66.0347 74.8887C64.6817 74.9733 63.7346 75.086 62.7875 75.086C51.3773 75.0973 39.9671 75.024 28.5626 75.1537C26.1385 75.1819 24.4698 74.6463 23.3705 72.397C22.6151 70.8467 21.5609 69.443 20.3545 67.5206Z" fill="white"/>
<path d="M105.469 59.8364C107.244 59.8364 108.513 59.8364 110.097 59.8364C110.097 65.7614 110.097 71.5172 110.097 77.4816C113.339 77.4816 116.264 77.4816 119.523 77.4816C119.523 71.6018 119.523 65.8516 119.523 59.8815C121.18 59.8815 122.516 59.8815 124.134 59.8815C124.134 65.6824 124.134 71.4439 124.134 77.3294C125.132 77.5718 125.904 77.7578 126.818 77.9833C126.818 80.6837 126.818 83.3615 126.818 86.2535C125.408 86.2535 124.067 86.2535 122.533 86.2535C122.409 84.923 122.28 83.5644 122.11 81.8055C117.657 81.8055 113.282 81.6589 108.924 81.8619C106.297 81.9803 105.305 81.3038 105.407 78.4851C105.615 72.3403 105.469 66.1842 105.469 59.8364Z" fill="white"/>
<path d="M145.28 81.3099C145.28 75.6048 145.28 69.8377 145.28 63.6365C142.405 63.6365 139.716 63.5182 137.055 63.7324C136.497 63.7775 135.635 65.0515 135.612 65.7844C135.471 69.9787 135.544 74.1842 135.539 78.3841C135.539 79.3875 135.539 80.391 135.539 81.3325C131.328 82.319 130.989 82.0766 130.984 78.2657C130.978 72.8481 130.922 67.4362 131.057 62.0186C131.08 61.2237 132.01 59.7862 132.557 59.7693C138.245 59.6058 143.933 59.6678 150.027 59.6678C150.027 63.5125 150.027 67.1205 150.027 70.7341C150.027 73.1638 150.027 75.5879 150.027 78.0176C150.033 82.1894 149.677 82.4487 145.28 81.3099Z" fill="white"/>
<path d="M170.468 81.8115C170.468 76.5856 170.35 71.7543 170.519 66.9287C170.604 64.4369 169.938 63.4898 167.261 63.5406C160.659 63.6702 160.654 63.5406 160.654 70.2266C160.654 72.9325 160.659 75.6442 160.654 78.3501C160.648 82.1159 160.332 82.3358 156.003 81.3211C156.003 77.8766 156.003 74.3588 156.003 70.8354C156.003 67.2951 156.003 63.7492 156.003 59.9326C162.249 59.9326 168.354 59.9326 174.708 59.9326C174.708 66.9005 174.708 73.9473 174.708 81.5409C173.541 81.6142 172.182 81.6988 170.468 81.8115Z" fill="white"/>
<path d="M181.337 81.541C181.337 74.3195 181.337 67.2445 181.337 59.9158C182.696 59.9158 184.01 59.9158 185.768 59.9158C185.768 62.8078 185.768 65.6209 185.768 68.434C186 68.5073 186.225 68.5806 186.456 68.6539C188.452 66.4834 190.634 64.454 192.392 62.1088C194.247 59.634 196.474 59.245 199.665 59.9553C197.624 62.2497 195.899 64.4201 193.926 66.3425C192.218 67.9999 191.981 69.3022 193.542 71.3035C195.995 74.4379 198.092 77.8542 200.51 81.3888C197.522 82.1104 195.313 82.2006 193.723 79.3594C192.364 76.9409 190.583 74.7592 189.01 72.4986C184.776 74.3646 185.904 78.1248 185.571 81.5354C184.139 81.541 182.809 81.541 181.337 81.541Z" fill="white"/>
</g>
<defs>
<clipPath id="clip0_1926_3163">
<rect width="201" height="140" fill="white"/>
</clipPath>
</defs>
</svg>
