<svg width="334" height="138" viewBox="0 0 334 138" fill="none" xmlns="http://www.w3.org/2000/svg">
<g clip-path="url(#clip0_1926_3275)">
<path d="M1.4248 60.4647C1.53655 60.0929 1.70417 59.7317 1.75306 59.3529C2.52829 53.4014 5.73048 49.2524 11.0733 46.7133C13.5142 45.5524 16.1123 44.9492 18.7977 44.6686C23.1452 44.2197 27.4265 44.6406 31.6728 45.591C31.809 45.6226 31.9451 45.6541 32.0813 45.6752C32.1302 45.6822 32.1861 45.6471 32.2839 45.6191C32.2978 45.3981 32.3083 45.1632 32.3258 44.8826C32.9194 44.9141 33.4677 44.9422 34.0858 44.9738C34.0858 44.3495 34.0858 43.7849 34.0858 43.115C34.4629 43.2448 34.7667 43.364 35.0775 43.4552C35.6327 43.6165 35.947 43.3991 35.9749 42.8239C35.9959 42.4346 35.9784 42.0453 35.9784 41.5894C36.153 41.6595 36.3032 41.6981 36.4359 41.7753C37.1343 42.1821 37.8117 41.8103 37.8606 40.9897C37.8746 40.7442 37.8851 40.4987 37.899 40.2427C38.3705 40.1936 38.3425 40.6214 38.6079 40.881C38.9606 40.6074 39.4181 40.39 39.666 40.0252C39.893 39.692 39.8965 39.2046 40.0292 38.6539C40.1828 39.0502 40.2876 39.3238 40.3993 39.6114C41.8381 39.4641 41.859 38.3208 41.9708 37.2476C42.0301 37.2616 42.093 37.2756 42.1523 37.2862C42.2187 37.679 42.285 38.0718 42.3514 38.4611C43.4409 38.3243 43.5247 38.2506 43.7587 37.3318C43.8669 36.9074 43.9787 36.483 44.1149 35.9675C44.7364 36.4971 44.1952 37.1704 44.5025 37.6614C45.0822 37.714 45.4244 37.4756 45.6025 36.8969C45.798 36.2656 46.0739 35.6589 46.3428 34.9715C47.0447 35.7886 46.2694 36.462 46.3079 37.1845C46.7234 37.3949 46.9853 37.202 47.1844 36.8443C47.5231 36.234 47.8548 35.6168 48.197 35.0065C48.3263 34.7751 48.4764 34.5541 48.6545 34.2665C49.0107 34.8803 49.0701 35.3713 48.6685 35.8903C48.4066 36.2305 48.218 36.6303 47.991 37.0091C48.4764 37.2721 48.644 36.9846 48.8151 36.7285C49.2866 36.0341 49.751 35.3362 50.2294 34.6418C50.3796 34.4244 50.5577 34.2245 50.7323 34.0105C51.291 34.5822 51.3259 34.8347 50.9208 35.3432C50.4529 35.9289 49.964 36.4971 49.4472 37.1178C49.8453 37.3949 50.0653 37.2546 50.2818 37.0056C50.9243 36.2656 51.5738 35.5326 52.2164 34.7961C52.3456 34.6488 52.4713 34.498 52.6005 34.3542C52.7995 34.1333 53.0789 33.9088 53.2989 34.1824C53.4526 34.3753 53.4491 34.7435 53.4141 35.0206C53.3932 35.1784 53.1662 35.3082 53.03 35.4484C52.4014 36.0867 51.7729 36.7215 51.1443 37.3633C51.05 37.458 50.9802 37.5773 50.7881 37.8298C51.0745 37.8333 51.2596 37.8894 51.3748 37.8263C51.5634 37.7211 51.7135 37.5387 51.8742 37.3809C52.817 36.4655 53.7598 35.5466 54.7062 34.6348C54.9017 34.4454 55.1078 34.2736 55.4116 34C55.5268 34.491 55.6141 34.8557 55.7084 35.245C54.4303 36.3989 53.1033 37.444 51.8357 38.6013C52.2478 38.917 52.4154 38.6364 52.59 38.4996C53.8541 37.5317 55.1078 36.5462 56.3684 35.5712C56.6303 35.3678 56.8957 35.1784 57.2554 34.9119C57.416 35.3748 57.5522 35.7571 57.7058 36.2025C57.4509 36.3919 57.2135 36.5742 56.969 36.7496C55.7363 37.6229 54.5036 38.4926 53.2745 39.3659C53.1138 39.4781 52.9462 39.5868 52.8135 39.7236C52.7541 39.7867 52.7157 39.9761 52.7506 40.0077C52.838 40.0813 52.9951 40.1515 53.0894 40.1199C53.271 40.0603 53.4281 39.934 53.5957 39.8288C55.0379 38.917 56.4766 38.0051 57.9154 37.0968C58.1947 36.9179 58.4811 36.7531 58.8652 36.5181C59.0433 36.9214 59.1934 37.2651 59.3785 37.6825C59.1655 37.8192 58.97 37.963 58.7604 38.0788C57.1506 38.9766 55.5373 39.8674 53.931 40.7652C53.3862 41.0703 53.3897 41.0809 53.7145 41.8314C55.7398 40.7863 57.7617 39.7411 59.8709 38.6504C60.0804 39.0152 60.2795 39.3589 60.5169 39.7762C58.275 40.7442 56.11 41.6806 53.9205 42.6275C53.9729 42.9993 54.0113 43.2939 54.0671 43.6937C54.4163 43.5849 54.6992 43.5043 54.9751 43.4061C56.4976 42.8625 58.0166 42.3049 59.5426 41.7648C60.283 41.5017 60.8137 41.7998 61.0477 42.6626C58.743 43.2693 56.4382 43.876 54.0706 44.4968C54.0287 44.9177 53.9868 45.3245 53.9379 45.819C54.3395 45.819 54.6922 45.8541 55.0379 45.812C56.4766 45.6436 57.9154 45.4613 59.3506 45.2719C59.8814 45.2017 60.3249 45.4227 60.7544 45.6752C60.8207 45.7138 60.8242 45.8646 60.8871 46.0575C59.6684 46.4327 58.4357 46.3766 57.2414 46.552C56.0332 46.7273 54.8144 46.8255 53.5643 46.9623C53.4525 47.4884 53.3513 47.9443 53.2326 48.4949C53.9798 48.6177 54.6573 48.7439 55.3382 48.8421C56.33 48.9824 57.3322 49.0771 58.3204 49.2454C58.8023 49.3261 59.396 49.263 59.6719 49.9328C59.0747 50.2169 58.502 49.9714 57.9433 49.9784C57.3322 49.9889 56.7176 49.9048 56.1065 49.8697C55.5198 49.8381 54.9332 49.8311 54.35 49.7961C53.7703 49.761 53.1906 49.7014 52.583 49.6488C52.3141 50.1643 52.0732 50.6272 51.8043 51.1463C52.1046 51.3041 52.3421 51.4409 52.59 51.5531C54.0113 52.1984 55.4395 52.8367 56.8608 53.4855C57.4579 53.7556 57.6465 54.0011 57.4719 54.2992C57.2204 54.72 56.8363 54.5412 56.4976 54.443C54.8389 53.9625 53.1837 53.4645 51.5249 52.9805C50.7427 52.7525 50.7427 52.7561 50.2992 53.6118C50.5542 53.7942 50.8161 53.9871 51.0884 54.1694C56.6268 57.9045 61.5052 62.348 65.4931 67.7385C68.3461 71.5928 70.6089 75.7557 71.852 80.4237C72.7181 83.6853 73.0114 86.9855 72.3025 90.3208C71.3248 94.9221 68.7441 98.3486 64.7109 100.691C61.9137 102.319 58.8617 103.15 55.6665 103.483C48.7418 104.202 42.1 102.925 35.6781 100.435C24.8912 96.2548 15.8224 89.7 8.82441 80.3956C5.89111 76.4957 3.62129 72.2346 2.41305 67.4649C2.13369 66.3567 2.00099 65.2098 1.78099 64.084C1.68321 63.6667 1.54004 63.2458 1.4248 62.818C1.4248 62.0324 1.4248 61.2468 1.4248 60.4647ZM31.8718 46.6221C31.8788 46.5835 31.8823 46.545 31.8893 46.5064C31.6902 46.4362 31.4982 46.345 31.2956 46.303C27.8071 45.6015 24.2976 45.2438 20.7322 45.605C18.0434 45.8751 15.4488 46.4573 13.0079 47.6357C8.50664 49.8066 5.56984 53.2681 4.4943 58.2131C3.78542 61.4677 4.11716 64.6803 5.00763 67.8507C6.30666 72.4836 8.64632 76.5694 11.6285 80.2974C17.1948 87.2591 24.1509 92.397 32.2909 95.9146C38.4089 98.559 44.7714 100.057 51.497 99.541C54.13 99.3376 56.6897 98.808 59.0992 97.7033C65.2556 94.887 68.3984 90.0683 68.4683 83.2715C68.5032 79.8205 67.6092 76.5589 66.2299 73.4305C63.4712 67.1808 59.2179 62.085 54.0497 57.7116C53.9764 57.652 53.8856 57.6134 53.8052 57.5643C53.8646 57.7923 54.0252 57.915 54.109 58.0764C54.1998 58.2517 54.3116 58.5253 54.2348 58.648C54.151 58.7883 53.8541 58.904 53.683 58.8655C53.1732 58.7567 52.6424 58.641 52.1884 58.399C50.9802 57.7607 49.8069 57.0523 48.6126 56.3824C48.0539 56.0668 48.0469 56.0808 47.4532 56.67C48.4694 58.5638 49.4926 60.4787 50.4948 62.348C50.2992 62.832 49.964 62.8495 49.6218 62.7794C48.5009 62.5514 47.3904 62.3235 46.7199 61.2082C46.4371 60.7347 46.011 60.342 45.6444 59.9246C45.5256 59.7878 45.372 59.6826 45.2358 59.5634C45.1869 59.5844 45.138 59.6055 45.0891 59.6265C45.4279 61.6817 45.7701 63.7333 46.1123 65.8025C45.4977 66.1006 44.911 66.013 44.3453 65.9218C43.0254 65.7113 43.0358 65.6903 42.519 64.4348C42.4073 64.1612 42.4177 63.7719 41.9987 63.6386C41.7927 65.1642 41.873 66.6723 41.6285 68.2084C40.3993 67.9313 39.2784 67.6788 38.147 67.4228C37.9584 68.0927 37.7664 68.7871 37.5673 69.4885C36.4813 69.257 35.4791 69.0466 34.4664 68.8327C34.2499 69.1694 34.0613 69.4675 33.8762 69.7551C33.6877 69.7024 33.555 69.6604 33.4188 69.6323C32.5912 69.4675 31.8893 68.6468 30.9325 69.1623C30.915 69.1729 30.8766 69.1588 30.8521 69.1483C30.0944 68.7941 29.2109 68.5802 28.6137 68.0471C28.0376 67.5315 27.3846 67.2229 26.7665 66.8196C26.6757 66.76 26.5919 66.6898 26.5046 66.6232C26.5919 66.3742 26.6687 66.1462 26.7525 65.9042C26.2566 65.5325 25.7922 65.1888 25.3312 64.8451C25.5023 64.4839 25.642 64.1857 25.7852 63.8841C25.429 63.4457 25.0973 63.0389 24.7551 62.6216C25.0239 62.2568 25.2719 61.9237 25.5408 61.5624C25.2195 61.1521 24.9122 60.7593 24.5805 60.3349C24.9506 59.9386 25.3033 59.5599 25.663 59.1776C25.3976 58.7427 25.1706 58.371 24.9366 57.9922C25.3976 57.5854 25.8062 57.2206 26.2182 56.8594C26.0087 56.4175 25.8306 56.0457 25.649 55.6635C26.1414 55.2742 26.5988 54.9164 27.0528 54.5587C26.8992 54.1273 26.77 53.7626 26.6233 53.3628C27.1331 53.0261 27.6325 52.6929 28.1109 52.3738C27.9957 51.8863 27.8979 51.4865 27.8001 51.0726C28.3798 50.7745 28.9106 50.4975 29.4344 50.2274C29.3226 49.7329 29.2283 49.3366 29.1271 48.8912C29.7521 48.6913 30.3283 48.5089 30.929 48.316C30.8731 47.8075 30.8242 47.3481 30.7718 46.8501C31.1839 46.7589 31.5296 46.6887 31.8718 46.6221ZM46.6536 52.4159C45.8714 51.9775 45.1241 51.5461 44.3663 51.1393C41.5343 49.6172 38.587 48.3722 35.521 47.4042C35.0915 47.2674 34.7562 47.2078 34.4245 47.6392C33.0556 49.4243 31.8683 51.3111 31.1071 53.4435C30.709 54.5587 30.4575 55.702 30.5413 56.898C30.6461 58.406 31.4528 59.5248 32.7832 59.9246C33.4816 60.135 34.1975 60.1947 34.9343 60.0859C36.3591 59.879 37.6895 59.3985 38.9606 58.7462C41.8031 57.2873 44.2091 55.2636 46.3358 52.8928C46.4475 52.7771 46.5209 52.6228 46.6536 52.4159ZM47.2647 51.8056C48.8955 49.754 50.2434 47.6427 50.9453 45.1842C51.1827 44.36 51.3329 43.4832 51.3434 42.6275C51.3643 40.9511 50.5297 39.7236 49.1329 39.3343C48.4764 39.152 47.7431 39.0608 47.0761 39.1555C46.1193 39.2887 45.159 39.5377 44.2615 39.8955C40.8184 41.2667 38.0387 43.5709 35.5803 46.303C35.5315 46.3556 35.5315 46.4538 35.4896 46.6116C39.5717 47.9127 43.4549 49.6417 47.2647 51.8056Z" fill="white"/>
<path d="M260.219 70.9297C261.424 70.9297 262.59 70.9297 263.872 70.9297C263.875 72.9007 263.879 74.8261 263.882 76.755C263.882 78.6909 263.882 80.6234 263.882 82.5593C263.882 84.4917 263.882 86.4206 263.882 88.332C264.598 88.567 267.346 88.581 268.244 88.346C268.244 82.5838 268.244 76.7936 268.244 70.9437C269.529 70.9437 270.712 70.9437 272.001 70.9437C272.074 72.9147 272.025 74.8366 272.032 76.762C272.043 78.6979 272.036 80.6304 272.036 82.5663C272.036 84.4952 272.036 86.4241 272.036 88.4337C273.534 88.5635 274.934 88.5459 276.436 88.4442C276.436 82.5873 276.436 76.7971 276.436 70.9472C277.717 70.9472 278.901 70.9472 280.075 70.9472C280.249 71.6416 280.274 90.6221 280.099 91.5024C273.478 91.5024 266.85 91.5024 260.229 91.5024C260.034 90.7835 260.016 71.7959 260.219 70.9297Z" fill="white"/>
<path d="M241.537 91.548C241.233 91.548 240.988 91.548 240.741 91.548C239.878 91.548 239.019 91.548 238.034 91.548C238.034 85.3754 238.034 79.266 238.034 73.1601C237.957 73.1531 237.881 73.1461 237.8 73.1391C236.519 79.259 235.237 85.3789 233.956 91.5164C233.051 91.5164 232.216 91.5164 231.267 91.5164C229.954 85.4596 228.738 79.3607 227.352 73.2864C227.094 74.0054 227.216 74.7418 227.195 75.4678C227.174 76.2254 227.191 76.9829 227.191 77.7369C227.191 78.4945 227.191 79.252 227.191 80.0095C227.191 80.7951 227.191 81.5807 227.191 82.3628C227.191 83.1203 227.191 83.8779 227.191 84.6354C227.191 85.393 227.191 86.1505 227.191 86.908C227.191 87.6656 227.191 88.4231 227.191 89.1806C227.191 89.9312 227.191 90.6852 227.191 91.4953C225.976 91.4953 224.852 91.4953 223.678 91.4953C223.678 84.6635 223.678 77.8632 223.678 71.0629C224.244 70.856 228.676 70.7963 229.817 70.9962C230.701 75.3135 231.591 79.6658 232.524 84.2286C232.684 83.8989 232.789 83.7586 232.824 83.6043C233.617 79.736 234.402 75.8676 235.192 72.0028C235.258 71.6766 235.338 71.3505 235.408 71.0418C236.03 70.8595 240.269 70.8069 241.526 70.9717C241.551 71.2137 241.603 71.4767 241.603 71.7398C241.607 78.0771 241.607 84.411 241.603 90.7483C241.6 90.9868 241.561 91.2323 241.537 91.548Z" fill="white"/>
<path d="M116.774 70.9443C117.912 70.9443 119.009 70.9443 120.231 70.9443C120.15 75.8333 120.44 80.6661 119.955 85.5094C120.744 83.9768 121.264 82.339 121.893 80.7502C122.539 79.1124 123.143 77.4535 123.772 75.8052C124.386 74.1849 125.004 72.5681 125.619 70.9443C126.995 70.9443 128.322 70.9443 129.701 70.9443C129.701 77.8043 129.701 84.6046 129.701 91.5136C129.16 91.5241 128.619 91.5416 128.074 91.5486C127.519 91.5557 126.963 91.5486 126.293 91.5486C126.223 89.8898 126.269 88.2765 126.262 86.6667C126.255 85.0429 126.234 83.4156 126.279 81.7918C126.321 80.1891 126.44 78.5899 126.398 76.945C124.55 81.7954 122.703 86.6457 120.849 91.5101C119.483 91.5101 118.157 91.5101 116.774 91.5101C116.774 84.6466 116.774 77.8253 116.774 70.9443Z" fill="white"/>
<path d="M283.308 70.944C284.447 70.944 285.543 70.944 286.758 70.944C286.758 73.4305 286.79 75.861 286.752 78.2879C286.713 80.6868 286.605 83.0891 286.521 85.6634C287.572 83.1172 288.445 80.6587 289.384 78.2248C290.317 75.7978 291.232 73.3674 292.164 70.9194C293.523 70.9194 294.829 70.9194 296.124 70.9194C296.337 71.5297 296.431 89.6369 296.232 91.4746C295.143 91.4746 294.043 91.4746 292.831 91.4746C292.761 90.2752 292.807 89.0512 292.8 87.8307C292.793 86.6243 292.793 85.4214 292.8 84.2149C292.803 82.9804 292.786 81.7459 292.835 80.5149C292.884 79.333 293.009 78.1546 293.1 76.9762C293.044 76.9622 292.992 76.9482 292.936 76.9341C291.089 81.7845 289.241 86.6348 287.387 91.5027C286.025 91.5027 284.698 91.5027 283.315 91.5027C283.308 84.6463 283.308 77.8285 283.308 70.944Z" fill="white"/>
<path d="M165.763 70.9371C166.158 70.9125 166.378 70.8845 166.598 70.8845C168.717 70.881 170.837 70.8775 172.957 70.8915C173.428 70.895 173.91 70.9125 174.367 71.0142C176.424 71.4702 177.65 72.8625 177.936 75.0439C178.072 76.089 177.947 77.1131 177.549 78.0916C177.133 79.1122 176.508 79.9434 175.363 80.3712C175.488 80.4975 175.555 80.6167 175.659 80.6658C177.269 81.4479 178.051 82.7771 178.223 84.5237C178.38 86.1124 178.219 87.659 177.531 89.1145C176.794 90.6786 175.516 91.5063 173.816 91.5379C171.277 91.587 168.738 91.5484 166.2 91.5449C166.095 91.5449 165.987 91.5133 165.763 91.4783C165.76 84.6429 165.763 77.8286 165.763 70.9371ZM169.597 88.7006C170.652 88.7217 171.616 88.7953 172.583 88.6585C173.386 88.5463 173.906 88.0658 174.13 87.3118C174.497 86.0773 174.504 84.8288 174.116 83.5978C173.903 82.9209 173.47 82.3913 172.758 82.2405C171.72 82.0231 170.676 82.1388 169.597 82.1704C169.597 84.3729 169.597 86.4631 169.597 88.7006ZM169.608 79.2875C170.523 79.2875 171.329 79.3507 172.126 79.27C173.173 79.1648 173.84 78.5475 174.071 77.4849C174.235 76.7308 174.235 75.9908 174.053 75.2438C173.861 74.4582 173.379 73.9392 172.6 73.7954C171.619 73.613 170.624 73.7077 169.608 73.7358C169.608 75.6261 169.608 77.4042 169.608 79.2875Z" fill="white"/>
<path d="M162.882 81.3738C162.882 82.7171 162.935 84.0638 162.865 85.407C162.816 86.3504 162.69 87.3079 162.439 88.2162C161.922 90.096 160.654 91.2639 158.765 91.7444C157.225 92.1337 155.675 92.1617 154.128 91.818C151.613 91.2569 150.094 89.563 149.752 86.9361C149.658 86.2172 149.609 85.4877 149.602 84.7617C149.585 82.3523 149.571 79.9429 149.609 77.5371C149.623 76.6743 149.724 75.801 149.913 74.9593C150.454 72.5324 152.113 71.0103 154.554 70.621C155.748 70.4316 156.946 70.4246 158.133 70.6386C160.766 71.1155 162.418 72.841 162.711 75.5941C162.886 77.2319 162.837 78.8908 162.886 80.5391C162.893 80.8197 162.886 81.1003 162.886 81.3809C162.886 81.3738 162.886 81.3738 162.882 81.3738ZM158.982 81.3773C158.985 80.0061 158.985 78.6348 158.985 77.2635C158.985 77.2074 158.992 77.1513 158.985 77.0952C158.922 76.5691 158.915 76.029 158.776 75.524C158.405 74.1632 157.511 73.5179 156.15 73.546C154.844 73.574 154.016 74.2509 153.674 75.6081C153.593 75.9308 153.524 76.2675 153.524 76.6007C153.513 79.7641 153.506 82.9275 153.534 86.0874C153.538 86.5503 153.667 87.0308 153.834 87.4692C154.25 88.5389 155.102 88.9562 156.209 88.9703C157.316 88.9843 158.203 88.602 158.618 87.5358C158.838 86.9782 158.947 86.3469 158.968 85.7472C159.013 84.2918 158.982 82.8328 158.982 81.3773Z" fill="white"/>
<path d="M299.389 70.9438C300.618 70.9438 301.802 70.9438 303.101 70.9438C303.101 73.5531 303.101 76.1414 303.101 78.7892C304.9 78.7892 306.586 78.7892 308.381 78.7892C308.399 78.5051 308.43 78.2106 308.43 77.9195C308.433 75.9029 308.43 73.8828 308.434 71.8662C308.434 71.5681 308.465 71.2665 308.482 70.9263C309.726 70.9263 310.892 70.9263 312.027 70.9263C312.072 70.9719 312.093 70.9929 312.114 71.0139C312.132 71.035 312.156 71.056 312.163 71.0806C312.184 71.1893 312.215 71.3015 312.215 71.4103C312.219 77.9405 312.219 84.4672 312.219 90.9975C312.219 91.1343 312.187 91.2746 312.16 91.513C311.559 91.5236 310.958 91.5411 310.358 91.5446C309.774 91.5516 309.188 91.5446 308.503 91.5446C308.364 90.752 308.451 89.9734 308.437 89.2089C308.42 88.3952 308.434 87.5851 308.434 86.7714C308.434 85.9858 308.434 85.2037 308.434 84.4181C308.434 83.6361 308.434 82.8575 308.434 81.9526C306.653 81.9106 304.945 81.9316 303.15 81.9386C303.15 85.1546 303.15 88.283 303.15 91.4745C301.858 91.4745 300.65 91.4745 299.389 91.4745C299.389 84.6461 299.389 77.8248 299.389 70.9438Z" fill="white"/>
<path d="M146.529 70.9404C146.529 77.8144 146.529 84.6357 146.529 91.5482C145.88 91.5482 145.272 91.5482 144.664 91.5482C144.085 91.5482 143.505 91.5482 142.849 91.5482C142.821 91.1169 142.779 90.7662 142.779 90.4119C142.775 85.3652 142.775 80.322 142.775 75.2752C142.775 74.8614 142.775 74.444 142.775 73.911C141.302 73.8864 139.933 73.8584 138.491 73.939C138.473 74.3038 138.445 74.6019 138.445 74.9035C138.442 77.5093 138.445 80.115 138.438 82.7243C138.435 84.52 138.351 86.3191 137.911 88.0622C137.701 88.8899 137.366 89.714 136.94 90.454C136.388 91.415 135.459 91.8744 134.349 91.8919C133.518 91.906 132.676 91.9761 131.824 91.6359C131.824 90.7662 131.824 89.8824 131.824 88.9565C132.1 88.9705 132.32 88.9775 132.537 88.9951C133.591 89.0827 134.084 88.7952 134.283 87.7606C134.478 86.747 134.621 85.7089 134.632 84.6778C134.684 80.4447 134.677 76.2151 134.691 71.982C134.691 71.6524 134.691 71.3227 134.691 70.9404C138.676 70.9404 142.545 70.9404 146.529 70.9404Z" fill="white"/>
<path d="M243.332 91.4958C245.071 84.6008 246.792 77.7795 248.524 70.9336C250.263 70.9336 251.925 70.9336 253.713 70.9336C255.253 77.7479 256.737 84.5903 258.263 91.4958C256.881 91.4958 255.585 91.4958 254.178 91.4958C253.86 89.7773 253.535 88.0273 253.193 86.186C251.688 86.1054 250.197 86.1475 248.639 86.158C248.217 87.9712 247.805 89.7317 247.393 91.4993C246.031 91.4958 244.735 91.4958 243.332 91.4958ZM252.603 83.1243C252.603 82.8438 252.634 82.6193 252.599 82.4054C252.124 79.5401 251.639 76.6747 251.154 73.8129C251.15 73.7954 251.112 73.7814 251.087 73.7744C251.059 73.7673 251.031 73.7744 250.934 73.7744C250.63 75.3175 250.302 76.8711 250.019 78.4318C249.739 79.9784 249.31 81.504 249.181 83.1278C250.392 83.1243 251.489 83.1243 252.603 83.1243Z" fill="white"/>
<path d="M110.023 84.2851C111.343 84.2851 112.527 84.2851 113.781 84.2851C113.91 86.2841 113.77 88.178 112.635 89.8649C111.913 90.9416 110.855 91.5378 109.618 91.8289C108.267 92.148 106.909 92.127 105.554 91.8184C103.169 91.2748 101.915 89.679 101.503 87.3433C101.388 86.6839 101.328 86.0071 101.325 85.3407C101.304 82.7069 101.286 80.073 101.332 77.4427C101.349 76.4993 101.457 75.5348 101.684 74.623C102.208 72.5082 103.549 71.172 105.704 70.7055C106.975 70.432 108.253 70.4004 109.521 70.674C112.059 71.2281 113.578 72.9957 113.798 75.6015C113.837 76.0469 113.823 76.4958 113.823 76.9447C113.823 77.0779 113.795 77.2147 113.781 77.334C113.044 77.5479 110.861 77.5514 110.114 77.348C110.041 76.6957 110.013 76.0258 109.88 75.3735C109.535 73.6866 107.761 72.9255 106.325 73.8724C105.959 74.1144 105.651 74.5598 105.498 74.9772C105.309 75.4892 105.246 76.0714 105.243 76.622C105.222 79.7328 105.225 82.8401 105.246 85.951C105.25 86.477 105.33 87.0171 105.477 87.5221C105.76 88.5041 106.406 88.939 107.478 88.9671C108.689 88.9986 109.37 88.6234 109.713 87.6168C109.891 87.0943 109.968 86.5296 110.02 85.979C110.065 85.4459 110.023 84.9128 110.023 84.2851Z" fill="white"/>
<path d="M315.313 70.9443C316.538 70.9443 317.722 70.9443 319.018 70.9443C319.084 71.8036 319.042 72.6628 319.049 73.5186C319.056 74.3883 319.049 75.2546 319.049 76.1243C319.049 76.9871 319.049 77.8498 319.049 78.8038C319.447 78.8213 319.769 78.8389 320.093 78.8494C321.123 78.8844 322.157 78.8669 323.18 78.9686C324.409 79.0914 325.359 79.7788 326.128 80.7152C327.542 82.4407 327.811 84.4467 327.521 86.5791C327.385 87.5856 327.098 88.5501 326.561 89.4233C325.733 90.7631 324.525 91.503 322.964 91.5311C320.537 91.5767 318.11 91.5416 315.679 91.5416C315.575 91.5416 315.466 91.5136 315.313 91.489C315.313 84.6466 315.313 77.8288 315.313 70.9443ZM319.056 81.9777C319.053 84.2328 319.046 86.4212 319.063 88.7149C320.121 88.6974 321.054 88.8166 321.993 88.6272C322.719 88.4799 323.208 88.0485 323.439 87.3717C323.907 86.0004 323.896 84.6221 323.337 83.2718C323.069 82.6195 322.597 82.0759 321.892 81.9988C320.991 81.9041 320.072 81.9777 319.056 81.9777Z" fill="white"/>
<path d="M180.943 70.9194C182.207 70.9194 183.374 70.9194 184.645 70.9194C184.711 71.8067 184.673 72.666 184.68 73.5217C184.687 74.3915 184.68 75.2577 184.68 76.1275C184.68 76.9903 184.68 77.853 184.68 78.7649C184.966 78.7999 185.179 78.8455 185.392 78.849C186.174 78.8595 186.953 78.8595 187.735 78.8525C189.694 78.8315 191.157 79.7083 192.205 81.3321C193.214 82.8927 193.399 84.6217 193.176 86.4209C193.043 87.4835 192.764 88.5076 192.191 89.43C191.36 90.7662 190.152 91.5062 188.594 91.5378C186.167 91.5834 183.74 91.5483 181.313 91.5483C181.209 91.5483 181.1 91.5167 180.947 91.4957C180.943 84.6463 180.943 77.8285 180.943 70.9194ZM184.732 88.6689C185.72 88.7426 186.656 88.8022 187.592 88.6304C188.35 88.4901 188.853 88.0271 189.083 87.3152C189.516 85.9685 189.516 84.6182 188.975 83.2925C188.73 82.6963 188.325 82.2018 187.7 82.0475C186.726 81.8125 185.734 81.9318 184.735 81.9633C184.732 84.257 184.732 86.4244 184.732 88.6689Z" fill="white"/>
<path d="M203.24 70.9443C206.864 70.9443 210.447 70.9443 214.086 70.9443C214.086 71.9298 214.086 72.8662 214.086 73.8903C211.732 73.8903 209.424 73.8903 207.151 73.8903C206.941 74.5707 206.896 77.6745 207.071 78.8038C209.155 78.9371 211.268 78.7898 213.478 78.8844C213.52 79.8699 213.506 80.8344 213.482 81.9076C211.331 81.9076 209.222 81.9076 207.147 81.9076C206.941 82.6055 206.896 87.3226 207.067 88.4448C207.371 88.4659 207.696 88.508 208.024 88.508C209.728 88.515 211.429 88.508 213.133 88.515C213.433 88.515 213.73 88.5466 214.086 88.5676C214.086 89.5776 214.086 90.514 214.086 91.5031C210.468 91.5031 206.882 91.5031 203.243 91.5031C203.24 84.6677 203.24 77.8674 203.24 70.9443Z" fill="white"/>
<path d="M196.42 70.9263C197.677 70.9263 198.836 70.9263 200.09 70.9263C200.121 71.2559 200.17 71.5505 200.17 71.8451C200.174 78.1159 200.174 84.3831 200.17 90.6538C200.17 90.9238 200.132 91.1939 200.107 91.5025C198.85 91.5025 197.666 91.5025 196.42 91.5025C196.42 84.6531 196.42 77.8388 196.42 70.9263Z" fill="white"/>
<path d="M334.421 91.5097C333.223 91.5097 332.088 91.5097 330.849 91.5097C330.817 91.2502 330.761 90.9872 330.761 90.7241C330.758 84.3868 330.758 78.0529 330.761 71.7156C330.761 71.4946 330.796 71.2737 330.824 70.9405C332.022 70.8423 333.195 70.8668 334.425 70.9335C334.421 77.8039 334.421 84.6077 334.421 91.5097Z" fill="white"/>
<path d="M38.4404 90.1178C38.9468 90.1178 39.3448 90.1178 39.8477 90.1178C39.8477 88.8166 39.8477 87.5646 39.8477 86.3125C39.8477 85.085 39.8477 83.8611 39.8477 82.5845C40.2353 82.5845 40.5321 82.5845 40.9512 82.5845C41.0175 85.057 40.9407 87.54 40.9966 90.1178C41.447 90.1423 41.8416 90.1669 42.355 90.1949C42.3969 87.6172 42.3515 85.1412 42.3829 82.602C42.7635 82.602 43.0743 82.602 43.4585 82.602C43.4585 85.4989 43.4585 88.3677 43.4585 91.2997C41.4261 91.2997 39.4356 91.2997 37.3823 91.2997C37.3823 88.4028 37.3823 85.534 37.3823 82.602C37.7036 82.602 38.0179 82.602 38.4404 82.602C38.4404 85.0921 38.4404 87.5716 38.4404 90.1178Z" fill="white"/>
<path d="M45.0787 70.9756C46.3323 70.9756 47.4707 70.9756 48.6021 70.9756C48.8012 71.5823 48.8326 73.5638 48.644 74.5704C47.9072 74.5704 47.139 74.5704 46.3079 74.5704C46.3079 75.1385 46.3079 75.5945 46.3079 76.1556C47.0761 76.1556 47.8409 76.1556 48.5707 76.1556C48.8081 76.8781 48.8291 78.9613 48.6231 79.7644C47.5021 79.7644 46.3672 79.7644 45.1241 79.7644C44.9879 78.2879 45.0787 76.8149 45.0647 75.349C45.0507 73.9005 45.0437 72.4521 45.0787 70.9756ZM47.5301 77.341C47.1075 77.341 46.7339 77.341 46.3044 77.341C46.3044 77.8039 46.3044 78.2283 46.3044 78.6772C46.7444 78.6772 47.118 78.6772 47.5301 78.6772C47.5301 78.2143 47.5301 77.8074 47.5301 77.341ZM46.2939 73.413C46.7374 73.413 47.1285 73.413 47.5196 73.413C47.5196 72.9396 47.5196 72.5398 47.5196 72.0908C47.0901 72.0908 46.7199 72.0908 46.2939 72.0908C46.2939 72.5538 46.2939 72.9746 46.2939 73.413Z" fill="white"/>
<path d="M39.9943 70.9824C41.192 70.9824 42.3234 70.9824 43.4479 70.9824C43.619 71.6242 43.6469 78.8278 43.4758 79.7467C42.3584 79.7467 41.2304 79.7467 39.9977 79.7467C39.9663 79.4907 39.907 79.2277 39.9035 78.9646C39.8965 76.5552 39.9 74.1493 39.907 71.74C39.9104 71.498 39.9628 71.256 39.9943 70.9824ZM42.3269 78.6595C42.526 77.7021 42.4946 72.7255 42.306 72.0942C41.9114 72.0942 41.5133 72.0942 41.0628 72.0942C41.0838 74.3317 41.0209 76.4921 41.1012 78.6595C41.5796 78.6595 41.9358 78.6595 42.3269 78.6595Z" fill="white"/>
<path d="M30.7161 79.7503C30.3145 79.7503 30.0212 79.7503 29.679 79.7503C29.679 76.8254 29.679 73.9496 29.679 71.0036C30.0072 71.0036 30.3145 71.0036 30.7161 71.0036C30.7161 72.4696 30.7161 73.9145 30.7161 75.3875C31.6939 75.0157 32.2735 74.2126 32.2805 73.3148C32.284 72.6134 32.2875 71.9119 32.298 71.214C32.298 71.1614 32.3294 71.1088 32.3643 70.9966C32.6577 70.9966 32.9684 70.9966 33.3246 70.9966C33.3246 73.918 33.3246 76.7903 33.3246 79.7153C33.1465 79.7468 32.9894 79.7854 32.8323 79.7959C32.6961 79.803 32.5564 79.7749 32.305 79.7503C32.2875 78.4001 32.27 77.0534 32.2526 75.7101C32.1897 75.6926 32.1269 75.6716 32.0605 75.654C31.425 76.3099 30.5275 76.7728 30.6986 77.9792C30.7789 78.5299 30.7161 79.098 30.7161 79.7503Z" fill="white"/>
<path d="M46.3743 86.9824C46.7514 86.5756 47.16 86.1933 47.4883 85.7514C47.6349 85.5515 47.6664 85.2323 47.6733 84.9658C47.6978 84.1872 47.6803 83.4086 47.6803 82.5845C48.0644 82.5845 48.3578 82.5845 48.707 82.5845C48.707 85.4813 48.707 88.3502 48.707 91.3137C48.3927 91.3312 48.1029 91.3488 47.6908 91.3698C47.6838 89.9389 47.6768 88.5641 47.6698 87.1893C46.7864 87.775 45.9413 88.2765 46.1019 89.4759C46.1788 90.0511 46.1159 90.6438 46.1159 91.2961C45.7457 91.2961 45.4349 91.2961 45.0718 91.2961C45.0718 88.3958 45.0718 85.5234 45.0718 82.5985C45.2464 82.5775 45.4035 82.5459 45.5642 82.5424C45.7003 82.5389 45.84 82.5599 46.081 82.5775C46.1753 84.0119 46.067 85.4533 46.1403 86.8807C46.2207 86.9122 46.2975 86.9473 46.3743 86.9824Z" fill="white"/>
<path d="M50.261 82.5737C50.6032 82.5737 50.9 82.5737 51.3121 82.5737C51.3121 83.8223 51.3121 85.0673 51.3121 86.3649C51.8533 86.3649 52.2829 86.3649 52.8171 86.3649C52.8381 85.0918 52.8556 83.8503 52.8765 82.5737C53.2711 82.5737 53.5679 82.5737 53.9206 82.5737C53.9206 85.4776 53.9206 88.35 53.9206 91.2924C53.5959 91.2924 53.2851 91.2924 52.8695 91.2924C52.8521 90.0684 52.8381 88.8515 52.8206 87.5854C52.3038 87.5854 51.8987 87.5854 51.4553 87.5854C51.2038 88.1711 51.3505 88.7883 51.3261 89.3916C51.3016 90.0018 51.3191 90.6155 51.3191 91.2959C50.9489 91.2959 50.6381 91.2959 50.261 91.2959C50.261 88.399 50.261 85.5092 50.261 82.5737Z" fill="white"/>
<path d="M32.2627 83.8538C32.5735 83.8538 32.8424 83.8538 33.2126 83.8538C33.2614 84.6955 33.3068 85.5126 33.3557 86.3614C33.7957 86.3614 34.1519 86.3614 34.5989 86.3614C34.7351 85.5091 34.6722 84.6639 34.6373 83.7836C34.2427 83.724 33.9179 83.6784 33.5233 83.6188C33.5233 83.3067 33.5233 82.984 33.5233 82.5947C34.2322 82.5947 34.969 82.5947 35.7024 82.5947C35.8909 83.3067 35.884 90.5594 35.6814 91.3134C35.4021 91.3134 35.1087 91.3134 34.7037 91.3134C34.7037 90.0754 34.7037 88.8549 34.7037 87.5748C34.2218 87.5748 33.8481 87.5748 33.3976 87.5748C33.1113 88.7778 33.443 90.0438 33.1986 91.3134C32.8738 91.3134 32.5805 91.3134 32.2907 91.3134C32.1161 90.6962 32.0811 84.8393 32.2627 83.8538Z" fill="white"/>
<path d="M56.4276 74.8091C56.8362 74.8617 57.2168 74.9108 57.6778 74.9739C57.6778 75.2615 57.6778 75.5386 57.6778 75.8612C57.2692 75.8998 56.8886 75.9349 56.4241 75.977C56.4032 76.4118 56.3787 76.8222 56.3683 77.229C56.3578 77.6183 56.3648 78.0076 56.3648 78.5196C56.8467 78.5407 57.2657 78.5617 57.7092 78.5827C57.7686 78.1935 57.814 77.8953 57.8698 77.5411C58.2051 77.5411 58.5228 77.5411 58.9105 77.5411C58.9105 78.2636 58.9105 78.9755 58.9105 79.7506C57.7476 79.7506 56.6267 79.7506 55.4429 79.7506C55.4429 76.8187 55.4429 73.9253 55.4429 70.9863C56.6302 70.9863 57.7651 70.9863 58.9908 70.9863C59.0886 71.7509 59.0606 72.5154 58.9978 73.3326C58.6451 73.3326 58.3273 73.3326 57.9711 73.3326C57.9397 72.9678 57.9082 72.6417 57.8733 72.2489C57.3984 72.2489 56.9444 72.2489 56.4276 72.2489C56.4276 73.1011 56.4276 73.9218 56.4276 74.8091Z" fill="white"/>
<path d="M25.7118 78.5228C26.1517 78.5228 26.5533 78.5228 26.9724 78.5228C27.0317 78.1545 27.0771 77.8599 27.133 77.5267C27.4613 77.5267 27.7616 77.5267 28.1212 77.5267C28.1212 78.2492 28.1212 78.9612 28.1212 79.7888C26.9794 79.8414 25.8514 79.8204 24.7375 79.7994C24.5524 79.1751 24.5 72.217 24.6641 71C25.8095 71 26.9654 71 28.1701 71C28.3447 71.7751 28.3098 72.5361 28.1876 73.3392C27.8454 73.3392 27.5486 73.3392 27.2063 73.3392C27.1609 72.9745 27.1155 72.6238 27.0632 72.2275C26.6232 72.2275 26.2146 72.2275 25.806 72.2275C25.5581 72.7886 25.4813 77.2602 25.7118 78.5228Z" fill="white"/>
<path d="M53.7773 79.74C52.604 79.74 51.4726 79.74 50.3412 79.74C50.1666 79.1263 50.1282 72.0489 50.2958 70.9897C50.6031 70.9897 50.9174 70.9897 51.3259 70.9897C51.3259 72.7012 51.3259 74.3671 51.3259 76.1312C52.1815 76.1312 52.9497 76.1312 53.7773 76.1312C53.7773 77.3587 53.7773 78.495 53.7773 79.74ZM51.3783 77.3166C51.3783 77.783 51.3783 78.1828 51.3783 78.6282C51.8288 78.6282 52.2269 78.6282 52.6669 78.6282C52.6669 78.1723 52.6669 77.7725 52.6669 77.3166C52.2373 77.3166 51.8602 77.3166 51.3783 77.3166Z" fill="white"/>
<path d="M56.5325 87.7395C57.381 87.7395 58.1493 87.7395 58.9699 87.7395C58.9699 88.9705 58.9699 90.1068 58.9699 91.3133C57.8245 91.3133 56.6721 91.3133 55.5163 91.3133C55.3382 90.682 55.3102 83.5205 55.4883 82.5806C55.7747 82.5806 56.0715 82.5806 56.4731 82.5806C56.5569 84.2675 56.4486 85.9649 56.5325 87.7395ZM57.849 88.9179C57.381 88.9179 56.9864 88.9179 56.5569 88.9179C56.5569 89.3809 56.5569 89.7807 56.5569 90.2191C57.0109 90.2191 57.4055 90.2191 57.849 90.2191C57.849 89.7807 57.849 89.4019 57.849 88.9179Z" fill="white"/>
<path d="M29.5776 83.8257C29.1096 83.7766 28.7569 83.738 28.3728 83.6959C28.3728 83.2996 28.3728 82.9559 28.3728 82.5771C29.1515 82.5771 29.8674 82.5771 30.5763 82.5771C30.7544 83.226 30.8172 89.3143 30.6671 91.3099C30.3668 91.3239 30.0525 91.3414 29.6195 91.3625C29.5566 88.8374 29.623 86.3613 29.5776 83.8257Z" fill="white"/>
<path d="M37.2705 72.2204C36.8375 72.1538 36.4848 72.0976 36.0728 72.0345C36.0728 71.7048 36.0728 71.3857 36.0728 71.0034C36.82 71.0034 37.5534 71.0034 38.4159 71.0034C38.4159 73.9003 38.4194 76.7972 38.4124 79.7537C38.0318 79.7537 37.7385 79.7537 37.3194 79.7537C37.2461 77.2566 37.3299 74.7525 37.2705 72.2204Z" fill="white"/>
<path d="M25.7015 83.6714C25.691 85.8528 25.6805 88.0342 25.6701 90.2157C25.6701 90.5488 25.6701 90.8785 25.6701 91.2853C25.2964 91.2853 24.9821 91.2853 24.5456 91.2853C24.5386 88.7778 24.5421 86.2807 24.5421 83.6959C25.0136 83.6959 25.3697 83.6959 25.7224 83.6959L25.7015 83.6714Z" fill="white"/>
<path d="M35.8421 72.3296C35.8421 74.8372 35.8421 77.2641 35.8421 79.7471C35.5034 79.7471 35.2101 79.7471 34.9168 79.7471C34.7317 79.1579 34.6758 73.5851 34.8504 72.3296C35.1542 72.3296 35.4685 72.3296 35.8421 72.3296Z" fill="white"/>
<path d="M27.1331 83.9097C27.5172 83.9097 27.8105 83.9097 28.1492 83.9097C28.1492 86.3822 28.1492 88.7986 28.1492 91.2851C27.821 91.2851 27.5102 91.2851 27.1331 91.2851C27.1331 88.8442 27.1331 86.4067 27.1331 83.9097Z" fill="white"/>
<path d="M58.0027 82.6055C58.3554 82.6055 58.6487 82.6055 59.0014 82.6055C59.0014 83.8365 59.0014 85.0219 59.0014 86.2599C58.6592 86.2599 58.3659 86.2599 58.0027 86.2599C58.0027 85.064 58.0027 83.8786 58.0027 82.6055Z" fill="white"/>
<path d="M53.8331 74.609C53.4804 74.609 53.1696 74.609 52.8204 74.609C52.796 74.3881 52.7611 74.2303 52.7611 74.0689C52.7576 73.0729 52.7576 72.0734 52.7576 71.0107C53.1417 71.0107 53.4525 71.0107 53.8331 71.0107C53.8331 72.1961 53.8331 73.371 53.8331 74.609Z" fill="white"/>
<path d="M25.7259 83.6924C25.7503 83.2856 25.7783 82.8753 25.8062 82.4229C26.1659 82.4229 26.4837 82.4229 26.8748 82.4229C26.8748 82.8156 26.8748 83.1804 26.8748 83.6679C26.4592 83.6679 26.0821 83.6679 25.7049 83.6679C25.7014 83.6714 25.7259 83.6924 25.7259 83.6924Z" fill="white"/>
</g>
<defs>
<clipPath id="clip0_1926_3275">
<rect width="333" height="140" fill="white" transform="translate(0.5 -1)"/>
</clipPath>
</defs>
</svg>
