<svg width="348" height="47" viewBox="0 0 348 47" fill="none" xmlns="http://www.w3.org/2000/svg">
<path d="M38.186 37.4613H24.0276L15.3562 22.8735L12.5387 25.8478V37.4613H0.703125V0.759888H12.5387V12.6053L22.687 0.759888H36.5683L23.5532 14.4487L38.186 37.4613ZM54.0331 23.8456C54.0331 22.1675 53.645 20.6458 52.8679 19.298C52.0911 17.9502 50.8919 17.272 49.2537 17.272C47.7926 17.272 46.6865 17.9502 45.9433 19.3067C45.2001 20.6717 44.8287 22.185 44.8287 23.8456C44.8287 25.6282 45.2254 27.3151 46.0195 28.8891C46.8047 30.4715 48.0205 31.2627 49.6504 31.2627C51.2214 31.2627 52.3443 30.4975 53.02 28.9586C53.6956 27.4196 54.0331 25.7152 54.0331 23.8456ZM62.242 32.1146C59.4454 36.3222 54.6519 38.2912 49.6942 38.2912C44.5849 38.2912 39.6605 36.3388 36.8049 31.9639C34.1857 27.9505 33.8506 21.4065 36.057 17.1243C37.7544 13.8287 40.8656 11.4466 44.4328 10.4787C48.3619 9.37227 52.6146 9.61144 56.3869 11.1902C59.9145 12.6609 62.5388 15.6868 63.6814 19.2838C64.9291 23.2111 64.4838 28.7411 62.242 32.1146ZM153.962 21.1534C153.592 19.4055 152.983 18.1939 152.143 17.5187C151.296 16.8335 150.226 16.4958 148.917 16.4958C147.649 16.4958 146.645 16.8238 145.904 17.4888C145.163 18.1444 144.603 19.3659 144.217 21.1534H153.962ZM164.087 26.3367H144.319C144.319 27.1629 144.459 27.888 144.739 28.5198C145.589 30.4413 147.128 31.7384 149.332 31.7384C150.95 31.7384 152.816 31.0773 153.164 29.2941H163.289C162.904 31.8244 161.313 34.057 159.264 35.5241C157.197 36.9996 154.658 37.8216 152.152 38.1118C148.937 38.5125 145.218 38.4035 142.241 37.1424C138.778 35.682 136.192 32.9819 134.783 29.4976C133.49 26.1015 133.472 22.3345 134.726 18.9111C136.026 15.3598 138.704 12.6132 142.175 11.1567C146.397 9.3931 152.308 9.51269 156.391 11.578C160.013 13.4038 162.484 16.5164 163.511 20.4449C164.018 22.4211 164.21 24.3146 164.087 26.3367ZM192.445 32.1657C190.5 35.9275 186.907 38.2773 182.577 38.2773C179.468 38.2773 177.422 37.2517 175.32 35.0632V46.5714H164.774V10.8091H174.112V14.7966C176.138 10.7013 181.151 9.21342 185.196 10.2465C189.603 11.3618 192.571 15.1212 193.628 19.3466C194.615 23.274 194.273 28.6572 192.445 32.1657ZM183.854 23.4702C183.854 22.3399 183.485 21.106 182.737 19.7769C181.989 18.4482 180.906 17.7838 179.494 17.7838C178.091 17.7838 177.008 18.405 176.252 19.6561C175.495 20.8988 175.117 22.1672 175.117 23.4702C175.117 25.0669 175.411 26.5596 176 27.9403C176.596 29.3209 177.755 30.0113 179.494 30.0113C181.191 30.0113 182.334 29.295 182.947 27.8626C183.502 26.4802 183.854 24.9684 183.854 23.4702ZM216.859 37.1545C212.76 38.6107 207.19 38.8342 203.11 37.1116C200.541 36.0272 198.264 34.1971 196.826 31.7637C195.42 29.4267 194.69 26.7341 194.69 23.9933C194.69 22.1678 195.068 20.374 195.704 18.6708C197.178 14.841 199.727 12.6434 203.407 11.1211C207.619 9.37862 213.874 9.44203 217.873 11.6499C221.684 13.7541 223.679 16.652 224.203 20.9227H213.411C213.221 19.609 212.856 18.797 212.323 18.1042C210.811 16.1407 207.39 17.1001 206.298 19.0377C204.905 21.51 204.674 25.162 205.555 27.872C206.136 29.6583 208.049 31.1727 209.906 31.1727C212.54 31.1727 213.086 29.3735 213.774 27.137H224.203C224.094 31.6088 221.459 35.5195 216.859 37.1545ZM243.441 26.9812C243.441 26.485 243.397 26.0776 243.308 25.7675C242.585 26.1748 241.455 26.5294 239.919 26.8305C238.75 27.0473 237.506 27.3124 236.46 27.8938C234.977 28.6376 235.057 30.7705 236.354 31.6321C237.854 32.5477 240.37 32.4722 241.631 31.1893C242.832 30.0285 243.441 28.6291 243.441 26.9812ZM255.174 37.4613H244.379L243.969 34.6383C243.181 35.6702 241.423 36.5203 239.648 37.214C238.782 37.5522 237.892 37.8198 236.982 37.9901C236.071 38.1523 235.104 38.2377 234.095 38.2377C232.274 38.2377 230.609 37.9137 229.1 37.2653C227.59 36.617 226.45 35.602 225.663 34.2373C224.957 32.7361 224.605 31.2177 224.605 29.6655C224.605 27.7035 225.505 26.0858 226.743 24.6356C227.449 23.8085 228.14 23.3437 229.386 22.8578C229.977 22.6277 230.561 22.4278 231.134 22.2608C231.701 22.0953 232.238 21.9377 232.749 21.8597L237.171 21.186C239.047 20.9 240.862 20.6533 241.664 20.3842C242.158 20.2184 242.74 19.6773 243.027 19.336C243.314 18.9951 243.272 18.6366 243.272 18.27C243.272 17.7666 243.034 17.3487 242.55 17.0077C242.066 16.6665 241.377 16.4958 240.483 16.4958C239.409 16.4958 238.073 16.658 237.425 16.982C236.777 17.3061 236.358 17.9544 236.162 18.9181H226.162C226.498 17.1696 226.437 16.1489 226.926 15.081C227.413 14.0165 228.181 13.1024 229.231 12.3432C230.281 11.5843 231.722 10.9942 233.57 10.6032C234.462 10.4144 235.522 10.2828 236.728 10.1852C237.942 10.0868 239.287 10.0318 240.779 10.0318C244.413 10.0318 247.135 10.4703 248.949 11.3451C250.76 12.2188 251.941 12.9227 252.492 14.2355C253.04 15.5413 253.411 17.2378 253.583 19.3191V33.4099C253.583 34.86 254.116 35.9348 255.174 36.6342V37.4613ZM284.51 37.4613H274.096V27.5003H266.383V37.4613H256.07L256.06 11.2247L256.07 10.8236H266.383V19.7492H273.98V10.8236H284.51L284.5 36.9839L284.51 37.4613ZM313.446 18.6744H304.479V37.4613H294.033V18.6744H284.99V10.8236H313.446V18.6744ZM347.272 28.9371C347.272 31.2769 346.173 33.3326 344.408 34.7987C342.086 36.7471 338.875 37.4613 335.927 37.4613H319.807V18.6744H313.786V10.8236H329.858V20.1728H335.356C338.417 20.1728 341.81 20.7801 344.236 22.8198C346.06 24.353 347.272 26.4974 347.272 28.9371ZM336.889 28.9643C336.889 27.2813 335.971 26.5753 334.394 26.3835C334.073 26.3835 333.439 26.3563 332.5 26.3156C331.562 26.273 330.304 26.2561 329.858 26.2561V31.4007L332.469 31.4518C333.181 31.467 333.768 31.4366 334.222 31.4007C335.825 31.2799 336.889 30.8378 336.889 28.9643ZM84.5771 37.461H79.5155L73.9848 19.6664L74.839 26.6411V37.461H65.6033V10.6699H77.4481L82.0463 25.4688L86.6445 10.6699H98.4897V37.461H89.2536V26.6411L90.1079 19.6664L84.5771 37.461ZM119.164 37.461H114.102L108.572 19.6664L109.426 26.6411V37.461H100.19V10.6699H112.035L116.633 25.4688L121.231 10.6699H133.076V37.461H123.84V26.6411L124.695 19.6664L119.164 37.461Z" fill="white"/>
</svg>
