<svg width="205" height="46" viewBox="0 0 205 46" fill="none" xmlns="http://www.w3.org/2000/svg">
<g clip-path="url(#clip0_1704_291)">
<path d="M60.3787 19.1951V16.2046H73.643V19.1951H68.6511V30.5883H65.3849V19.1951H60.3787ZM82.0509 30.8203C81.0349 30.8247 80.025 30.668 79.0605 30.3563C78.1874 30.068 77.3886 29.5987 76.719 28.9806C76.0425 28.3233 75.5181 27.5323 75.181 26.6607C74.7997 25.6088 74.6169 24.4981 74.6414 23.3826C74.6185 22.2874 74.8022 21.1974 75.1834 20.1671C75.5168 19.2978 76.0418 18.5105 76.7214 17.8611C77.3872 17.2343 78.1867 16.7589 79.0628 16.4691C81.0069 15.8505 83.102 15.8505 85.046 16.4691C85.9345 16.7634 86.7432 17.2503 87.4114 17.8931C88.0796 18.536 88.5899 19.3182 88.9041 20.181C89.2997 21.2081 89.491 22.2995 89.4675 23.3965C89.49 24.5093 89.299 25.6165 88.9041 26.6607C88.579 27.5337 88.0604 28.3259 87.3851 28.9806C86.7168 29.5992 85.9187 30.0686 85.046 30.3563C84.08 30.6683 83.0684 30.825 82.0509 30.8203ZM82.0509 27.9854C83.3504 27.9854 84.3551 27.5763 85.0651 26.7581C85.775 25.9399 86.1292 24.8186 86.1276 23.3942C86.1276 21.9697 85.7734 20.8554 85.0651 20.0511C84.3567 19.2469 83.352 18.8447 82.0509 18.8447C80.7498 18.8447 79.7459 19.2469 79.0391 20.0511C78.3323 20.8554 77.9757 21.9659 77.9694 23.3826C77.9694 24.807 78.3236 25.9283 79.0319 26.7465C79.7403 27.5647 80.7466 27.9738 82.0509 27.9738V27.9854ZM92.1156 30.5883V16.2046H105.068V30.5883H101.805V19.1951H95.3865V30.5883H92.1156ZM114.102 26.09H107.617V23.4452H114.102V26.09ZM123.222 27.9738C124.264 27.9738 125.056 27.7418 125.6 27.2778C126.156 26.7858 126.542 26.1373 126.705 25.4218L129.981 25.9484C129.664 27.5152 128.955 28.7216 127.855 29.5676C126.756 30.4136 125.217 30.8312 123.239 30.8203C122.237 30.8318 121.24 30.6748 120.292 30.3563C119.446 30.0563 118.678 29.5814 118.038 28.9644C117.389 28.3018 116.894 27.5105 116.586 26.6444C116.217 25.6002 116.041 24.5006 116.065 23.3965C116.041 22.2808 116.225 21.1702 116.607 20.1184C116.928 19.2576 117.438 18.476 118.102 17.8286C118.747 17.2158 119.526 16.7527 120.379 16.4738C121.305 16.1564 122.28 15.9993 123.261 16.0098C125.241 16.0098 126.781 16.4397 127.879 17.2997C128.978 18.1596 129.671 19.3412 129.959 20.8445L126.686 21.3526C126.5 20.6581 126.108 20.0327 125.559 19.5547C125.025 19.0737 124.259 18.8331 123.261 18.8331C122.731 18.8163 122.203 18.9138 121.716 19.1188C121.229 19.3237 120.795 19.631 120.444 20.0186C119.735 20.809 119.381 21.9372 119.381 23.4035C119.381 24.8697 119.728 25.9979 120.422 26.7883C120.768 27.177 121.199 27.4853 121.682 27.6904C122.166 27.8956 122.691 27.9924 123.218 27.9738H123.222ZM132.446 30.5953V16.2046H143.143V18.9886H135.714V22.0277H142.824V24.7142H135.714V27.8253H143.062V30.5883L132.446 30.5953ZM145.971 30.5953V16.2046H152.611C154.245 16.2046 155.545 16.5851 156.512 17.3461C157.478 18.107 157.97 19.3203 157.985 20.9861C157.985 22.6085 157.487 23.8071 156.49 24.582C155.493 25.3569 154.146 25.7435 152.449 25.742H149.24V30.5883L145.971 30.5953ZM149.24 23.0021H152.209C153.077 23.0021 153.699 22.8397 154.075 22.5149C154.451 22.1901 154.638 21.6828 154.638 20.993C154.638 20.2738 154.451 19.7588 154.075 19.4479C153.699 19.1371 153.077 18.9747 152.209 18.9607H149.24V23.0021ZM160.32 30.5883V16.2046H167.168C168.715 16.2046 169.922 16.5287 170.789 17.1767C171.655 17.8247 172.094 18.8215 172.103 20.1671C172.103 20.8103 171.935 21.4429 171.613 22.0045C171.281 22.5845 170.681 23.0152 169.814 23.2967C170.809 23.521 171.51 23.9293 171.915 24.5217C172.334 25.1579 172.546 25.9026 172.524 26.6583C172.524 27.9714 172.068 28.959 171.157 29.6209C170.246 30.2829 168.931 30.6054 167.213 30.5883H160.32ZM166.714 18.8494H163.572V22.0509H166.662C167.454 22.0509 168.009 21.9094 168.326 21.6264C168.491 21.4674 168.619 21.2753 168.701 21.0635C168.783 20.8517 168.817 20.625 168.801 20.3991C168.819 20.1831 168.785 19.9661 168.702 19.765C168.62 19.5638 168.491 19.3839 168.326 19.2391C168.036 18.9886 167.494 18.8563 166.714 18.8563V18.8494ZM166.824 24.6237H163.572V27.9459H166.845C167.696 27.9459 168.297 27.8114 168.642 27.5422C168.822 27.3834 168.963 27.1865 169.053 26.9666C169.143 26.7466 169.181 26.5095 169.163 26.2732C169.182 26.038 169.142 25.8017 169.048 25.5845C168.954 25.3672 168.807 25.1753 168.621 25.0251C168.274 24.7637 167.675 24.6323 166.824 24.6307V24.6237ZM185.177 30.5883V20.8237L178.369 30.5883H175.041V16.2046H178.284V25.9856L185.047 16.2046H188.427V30.5883H185.177ZM198.251 27.9668C199.293 27.9668 200.085 27.7348 200.628 27.2708C201.185 26.7788 201.571 26.1303 201.734 25.4149L205 25.9484C204.683 27.5152 203.975 28.7216 202.875 29.5676C201.775 30.4136 200.234 30.8312 198.251 30.8203C197.249 30.8318 196.252 30.6748 195.304 30.3563C194.459 30.0563 193.69 29.5814 193.05 28.9644C192.401 28.3018 191.906 27.5105 191.598 26.6444C191.232 25.5997 191.058 24.5002 191.084 23.3965C191.061 22.2808 191.244 21.1702 191.626 20.1184C191.948 19.258 192.458 18.4765 193.122 17.8286C193.766 17.2129 194.544 16.7466 195.399 16.4645C196.324 16.1471 197.299 15.9901 198.28 16.0005C200.261 16.0005 201.8 16.4305 202.899 17.2904C203.997 18.1503 204.69 19.335 204.979 20.8445L201.705 21.3526C201.519 20.6581 201.127 20.0327 200.579 19.5547C200.044 19.0737 199.278 18.8331 198.28 18.8331C197.75 18.8163 197.223 18.9138 196.736 19.1188C196.249 19.3237 195.814 19.631 195.463 20.0186C194.755 20.809 194.4 21.9349 194.4 23.3965C194.4 24.8581 194.747 25.9863 195.442 26.7813C195.787 27.1713 196.217 27.4809 196.701 27.6873C197.184 27.8936 197.709 27.9915 198.237 27.9738L198.251 27.9668Z" fill="white"/>
<path fill-rule="evenodd" clip-rule="evenodd" d="M29.897 0H25.8963L33.7907 7.70456L35.7898 9.65564L17.5906 27.4218L12.7865 22.7355L26.1887 9.65332L16.2951 0H11.4933L14.5836 3.01594L0 17.2535V21.158L16.5875 4.97166L21.394 9.65564L7.98473 22.7355L24.1871 38.5483L37.5917 25.4684L42.3911 30.1594L26.1483 46H30.1489L44.3831 32.1081L47.1239 34.783V30.0967L37.7961 20.9793L24.3892 34.0615L19.5874 29.3752L37.7961 11.5998L42.5979 16.2861L47.1382 20.7172V16.822L29.897 0ZM47.1334 7.44937V4.7907C47.1328 3.52032 46.6154 2.30214 45.695 1.40384C44.7746 0.505545 43.5264 0.000614752 42.2247 0L39.5005 0L47.1334 7.44937ZM47.1334 38.8058L39.7644 45.9977H42.2271C43.5288 45.9971 44.7769 45.4921 45.6974 44.5938C46.6178 43.6955 47.1352 42.4774 47.1358 41.207L47.1334 38.8058ZM18.2182 45.9977H22.2189L19.3877 43.2369L0 24.3154V28.2199L18.2182 45.9977ZM0 37.5832L8.61466 45.9907H4.90874C3.6087 45.9901 2.36195 45.4865 1.44179 44.5902C0.521628 43.6939 0.00314613 42.4781 0 41.2093V37.5832ZM0 7.88784L8.08219 0H4.90874C3.60706 0.000614752 2.35886 0.505545 1.43843 1.40384C0.518002 2.30214 0.000629899 3.52032 0 4.7907L0 7.88784Z" fill="#1460F0"/>
</g>
<defs>
<clipPath id="clip0_1704_291">
<rect width="205" height="46" fill="white"/>
</clipPath>
</defs>
</svg>
